<svg xmlns="http://www.w3.org/2000/svg" viewBox="0 0 32 32" width="32px" height="32px">
  <path d="M 5 5 L 5 6 L 5 27 L 16 27 L 16 21.5 L 16 10.5 L 16 5 L 5 5 z M 16 10.5 C 16 13.525721 18.474279 16 21.5 16 C 24.525721 16 27 13.525721 27 10.5 C 27 7.4742785 24.525721 5 21.5 5 C 18.474279 5 16 7.4742785 16 10.5 z M 21.5 16 C 18.474279 16 16 18.474279 16 21.5 C 16 24.525721 18.474279 27 21.5 27 C 24.525721 27 27 24.525721 27 21.5 C 27 18.474279 24.525721 16 21.5 16 z M 7 7 L 14 7 L 14 25 L 7 25 L 7 7 z M 21.5 7 C 23.444841 7 25 8.5551587 25 10.5 C 25 12.444841 23.444841 14 21.5 14 C 19.555159 14 18 12.444841 18 10.5 C 18 8.5551587 19.555159 7 21.5 7 z M 21.5 18 C 23.444841 18 25 19.555159 25 21.5 C 25 23.444841 23.444841 25 21.5 25 C 19.555159 25 18 23.444841 18 21.5 C 18 19.555159 19.555159 18 21.5 18 z" fill="#000000" />
</svg>